<?xml version="1.0" encoding="utf-8"?>
<!-- Generator: Adobe Illustrator 18.1.1, SVG Export Plug-In . SVG Version: 6.00 Build 0)  -->
<!DOCTYPE svg PUBLIC "-//W3C//DTD SVG 1.1//EN" "http://www.w3.org/Graphics/SVG/1.1/DTD/svg11.dtd">
<svg version="1.1" id="Layer_1" xmlns="http://www.w3.org/2000/svg" xmlns:xlink="http://www.w3.org/1999/xlink" x="0px" y="0px"
	 viewBox="0 0 1166.5 102.7" style="enable-background:new 0 0 1166.5 102.7;" xml:space="preserve">
<style type="text/css">
	.st0{fill:#FFFFFF;}
</style>
<g>
	<path class="st0" d="M62.1,5c3.6,1.5,6.6,3.8,9.1,6.8c2.1,2.5,3.7,5.2,4.9,8.2c1.2,3,1.8,6.4,1.8,10.3c0,4.6-1.2,9.2-3.5,13.7
		c-2.3,4.5-6.2,7.7-11.6,9.5c4.5,1.8,7.7,4.4,9.6,7.7c1.9,3.3,2.8,8.4,2.8,15.3v6.6c0,4.5,0.2,7.5,0.5,9.1c0.5,2.5,1.8,4.4,3.8,5.6
		v2.5H57.1C56.4,98,56,96.3,55.7,95c-0.5-2.7-0.8-5.5-0.9-8.4l-0.1-9.1c-0.1-6.2-1.2-10.4-3.2-12.5c-2.1-2.1-5.9-3.1-11.6-3.1H19.9
		v38.3H0V2.5h46.7C53.4,2.7,58.5,3.5,62.1,5z M19.9,19.5v26.2h22c4.4,0,7.6-0.5,9.8-1.6c3.9-1.9,5.8-5.5,5.8-11
		c0-5.9-1.9-9.9-5.6-11.9c-2.1-1.1-5.2-1.7-9.4-1.7H19.9z"/>
	<path class="st0" d="M125.5,2.5h23.1l34.6,97.7H161l-6.4-20.1h-36l-6.6,20.1H90.6L125.5,2.5z M124.1,63.3h25l-12.3-38.4L124.1,63.3
		z"/>
	<path class="st0" d="M260.3,2.5h29.4v97.7h-19V34.1c0-1.9,0-4.6,0.1-8c0-3.4,0.1-6.1,0.1-7.9l-18.5,82h-19.8l-18.4-82
		c0,1.9,0,4.5,0.1,7.9c0,3.4,0.1,6.1,0.1,8v66.1h-19V2.5h29.7l17.8,76.8L260.3,2.5z"/>
	<path class="st0" d="M380.8,19.8h-51.7v20.7h47.4v17h-47.4v25.1h54.1v17.6h-74V2.5h71.6V19.8z"/>
	<path class="st0" d="M398.8,2.5h21.4l38.8,68.1V2.5h19v97.7h-20.4l-39.8-69.3v69.3h-19V2.5z"/>
	<path class="st0" d="M600.5,33c-1.5-6.7-5.3-11.3-11.3-14c-3.4-1.5-7.1-2.2-11.2-2.2c-7.9,0-14.3,3-19.4,8.9
		c-5.1,5.9-7.6,14.8-7.6,26.8c0,12,2.7,20.5,8.2,25.5c5.5,5,11.7,7.5,18.7,7.5c6.8,0,12.5-2,16.8-5.9c4.4-3.9,7.1-9.1,8.1-15.4
		h-22.6V47.8h40.7v52.4h-13.5L605.3,88c-3.9,4.6-7.5,7.9-10.6,9.8c-5.4,3.3-12,4.9-19.9,4.9c-12.9,0-23.5-4.5-31.8-13.4
		c-8.6-9-12.9-21.3-12.9-37c0-15.8,4.4-28.5,13.1-38C551.8,4.8,563.4,0,577.7,0c12.4,0,22.4,3.1,29.9,9.4s11.8,14.1,13,23.6H600.5z"
		/>
	<path class="st0" d="M668.3,2.5h23.1l34.6,97.7h-22.1l-6.4-20.1h-36l-6.6,20.1h-21.3L668.3,2.5z M666.9,63.3h25l-12.3-38.4
		L666.9,63.3z"/>
	<path class="st0" d="M738.4,2.5h20.4v80.1h48.8v17.6h-69.2V2.5z"/>
	<path class="st0" d="M821.2,2.5h20.4v80.1h48.8v17.6h-69.2V2.5z"/>
	<path class="st0" d="M976.4,19.8h-51.7v20.7h47.4v17h-47.4v25.1h54.1v17.6h-74V2.5h71.6V19.8z"/>
	<path class="st0" d="M1057.2,5c3.6,1.5,6.6,3.8,9.1,6.8c2.1,2.5,3.7,5.2,4.9,8.2c1.2,3,1.8,6.4,1.8,10.3c0,4.6-1.2,9.2-3.5,13.7
		c-2.3,4.5-6.2,7.7-11.6,9.5c4.5,1.8,7.7,4.4,9.6,7.7c1.9,3.3,2.8,8.4,2.8,15.3v6.6c0,4.5,0.2,7.5,0.5,9.1c0.5,2.5,1.8,4.4,3.8,5.6
		v2.5h-22.5c-0.6-2.2-1.1-3.9-1.3-5.2c-0.5-2.7-0.8-5.5-0.9-8.4l-0.1-9.1c-0.1-6.2-1.2-10.4-3.2-12.5c-2.1-2.1-5.9-3.1-11.6-3.1
		h-19.9v38.3h-19.9V2.5h46.7C1048.5,2.7,1053.6,3.5,1057.2,5z M1015.1,19.5v26.2h22c4.4,0,7.6-0.5,9.8-1.6c3.9-1.9,5.8-5.5,5.8-11
		c0-5.9-1.9-9.9-5.6-11.9c-2.1-1.1-5.2-1.7-9.4-1.7H1015.1z"/>
	<path class="st0" d="M1143.4,2.5h23.1l-32.7,61v36.6h-20.4V63.6l-33.8-61h24.1l20.3,42.5L1143.4,2.5z"/>
</g>
</svg>
