<?xml version="1.0" encoding="utf-8"?>
<!-- Generator: Adobe Illustrator 18.1.1, SVG Export Plug-In . SVG Version: 6.00 Build 0)  -->
<!DOCTYPE svg PUBLIC "-//W3C//DTD SVG 1.1//EN" "http://www.w3.org/Graphics/SVG/1.1/DTD/svg11.dtd">
<svg version="1.1" id="Layer_1" xmlns="http://www.w3.org/2000/svg" xmlns:xlink="http://www.w3.org/1999/xlink" x="0px" y="0px"
	 viewBox="0 0 692.3 96.6" style="enable-background:new 0 0 692.3 96.6;" xml:space="preserve">
<style type="text/css">
	.st0{fill:#FFFFFF;}
</style>
<g>
	<path class="st0" d="M4,70.6V20c0-2.2,0.6-3.9,1.8-5.1C7,13.6,8.8,13,11,13h15.8c7.1,0,12.7,1.7,16.6,5c3.9,3.3,5.8,8.5,5.8,15.4
		c0,4.7-1.6,8.5-4.7,11.5c-3.1,2.9-7.1,4.8-12,5.5l15.3,16.3c1.2,1.3,1.8,2.6,1.8,4c0,1.8-0.6,3.4-1.9,4.8c-1.3,1.4-2.9,2.1-4.8,2.1
		c-2.2,0-3.9-0.8-5.2-2.3L17.7,51h-0.2v19.5c0,2.2-0.6,3.9-1.9,5.1c-1.2,1.2-2.9,1.8-4.9,1.8c-2,0-3.6-0.6-4.9-1.8
		C4.7,74.5,4,72.8,4,70.6z M17.5,41.3h9.3c2.5,0,4.5-0.7,6.1-2.1s2.3-3.4,2.3-5.9c0-2.5-0.8-4.5-2.3-5.9c-1.5-1.4-3.6-2.1-6.1-2.1
		h-9.3V41.3z"/>
	<path class="st0" d="M53.8,71.3c0-1,0.2-2,0.6-3l18.1-49c0.8-2.2,2.1-4,3.8-5.4c1.7-1.4,3.6-2.1,5.8-2.1c2.3,0,4.3,0.7,5.9,2
		c1.6,1.4,2.9,3.2,3.7,5.4l17.7,49c0.5,1.3,0.7,2.4,0.7,3.3c0,1.7-0.6,3.1-1.8,4.2c-1.2,1.1-2.7,1.7-4.4,1.7c-3.4,0-5.6-1.5-6.6-4.6
		l-2.7-8.5h-25l-2.7,8.4c-1,3.2-3.1,4.7-6.5,4.7c-1.8,0-3.4-0.6-4.7-1.8S53.8,73.1,53.8,71.3z M73.5,52h17.1l-8.4-26.1H82L73.5,52z"
		/>
	<path class="st0" d="M116.1,71.1c0-0.7,0-1.2,0.1-1.5l8.4-50.2c0.3-1.8,1.3-3.3,3-4.8s3.7-2.1,6-2.1c2.2,0,4.1,0.6,5.8,1.9
		c1.7,1.3,2.8,2.8,3.4,4.5l10.6,35.6l-0.2,0.1l10.6-35.6c0.5-1.7,1.6-3.2,3.2-4.5c1.6-1.3,3.5-1.9,5.7-1.9c2.3,0,4.2,0.7,5.9,2.1
		c1.7,1.4,2.7,3,2.9,4.8l8.4,50.2c0.1,0.4,0.1,0.9,0.1,1.5c0,1.9-0.6,3.5-1.9,4.7c-1.2,1.2-2.8,1.8-4.6,1.8c-2.2,0-3.9-0.5-4.9-1.5
		c-1.1-1-1.8-2.6-2.1-4.8l-5.3-36.7l-0.2,0l-10.8,37.8c-1,3.5-3.4,5.2-7.2,5.2c-3.8,0-6.2-1.7-7.2-5.2L135,34.6l-1.2-0.2l-5.3,36.7
		c-0.3,2.2-0.9,3.8-1.9,4.9c-1,1-2.5,1.6-4.5,1.6c-1.7,0-3.1-0.6-4.3-1.8C116.6,74.6,116.1,73,116.1,71.1z"/>
	<path class="st0" d="M199.8,70.3V20.8c0-2.3,0.6-4.2,1.8-5.7c1.2-1.4,2.9-2.2,5.3-2.2h22.3c2,0,3.6,0.6,4.7,1.8s1.7,2.7,1.7,4.4
		c0,1.7-0.6,3.1-1.7,4.4c-1.1,1.2-2.7,1.9-4.7,1.9h-15.9v13.1h14.8c2.1,0,3.7,0.6,4.9,1.8c1.2,1.2,1.7,2.7,1.7,4.4
		c0,1.7-0.6,3.1-1.8,4.4s-2.8,1.8-4.8,1.8h-14.8v13.7H230c2,0,3.6,0.6,4.7,1.8c1.1,1.2,1.7,2.7,1.7,4.4c0,1.7-0.6,3.1-1.7,4.4
		S231.9,77,230,77h-23.2c-2,0-3.6-0.6-5-1.9C200.5,73.9,199.8,72.3,199.8,70.3z"/>
	<path class="st0" d="M244.5,70.6V19.4c0-2.2,0.6-3.9,1.9-5.1s2.9-1.8,4.9-1.8c0.9,0,1.9,0.3,3.1,0.9c1.2,0.6,2,1.3,2.6,2.1
		l28.6,38.1h0.2v-34c0-2.2,0.6-3.9,1.9-5.1s2.9-1.8,4.9-1.8s3.6,0.6,4.9,1.8s1.9,2.9,1.9,5.1v51.2c0,2.2-0.6,3.9-1.9,5.1
		s-2.9,1.8-4.9,1.8c-0.9,0-1.9-0.3-3-0.9s-2-1.3-2.6-2.1L258.2,37H258v33.6c0,2.2-0.6,3.9-1.9,5.1s-2.9,1.8-4.9,1.8
		s-3.6-0.6-4.9-1.8S244.5,72.8,244.5,70.6z"/>
	<path class="st0" d="M335.5,45c0-6.2,1.3-11.8,3.9-16.9c2.6-5,6.2-9,11-11.9c4.7-2.9,10.1-4.4,16.1-4.4c4.4,0,8.5,0.6,12.4,1.9
		c3.9,1.2,6.9,2.8,9.1,4.8c2.2,1.9,3.3,4,3.3,6c0,1.9-0.5,3.4-1.6,4.6s-2.4,1.7-4,1.7c-1.1,0-2.2-0.2-3.2-0.7c-1-0.5-2-1-2.9-1.6
		c-0.9-0.6-1.9-1.3-3-1.9c-1.1-0.6-2.5-1.2-4.3-1.6c-1.7-0.5-3.7-0.7-5.9-0.7c-2.7,0-5.2,0.6-7.4,1.7c-2.2,1.1-4,2.7-5.3,4.6
		s-2.4,4.1-3.1,6.6s-1.1,5.1-1.1,7.8c0,3.8,0.6,7.2,1.8,10.3s3.1,5.6,5.7,7.5s5.7,2.9,9.4,2.9c1.9,0,3.7-0.3,5.4-0.8
		c1.7-0.5,3.4-1.3,4.9-2.4c1.5-1.1,2.7-2.6,3.6-4.4s1.4-4.1,1.4-6.5h-9.1c-1.8,0-3.4-0.6-4.5-1.8c-1.2-1.2-1.8-2.7-1.8-4.5
		s0.6-3.3,1.8-4.5s2.7-1.7,4.5-1.7h15.3c2.8,0,4.8,0.7,6,2.1c1.2,1.4,1.9,3.6,1.9,6.5c0,5.8-1.2,10.9-3.5,15.5
		c-2.4,4.6-5.8,8.2-10.3,10.9c-4.5,2.7-9.7,4-15.6,4c-6,0-11.3-1.5-16.1-4.4c-4.7-2.9-8.4-6.9-11-11.9
		C336.8,56.8,335.5,51.2,335.5,45z"/>
	<path class="st0" d="M401,71.3c0-1,0.2-2,0.6-3l18.1-49c0.8-2.2,2.1-4,3.8-5.4c1.7-1.4,3.6-2.1,5.8-2.1c2.3,0,4.3,0.7,5.9,2
		c1.6,1.4,2.9,3.2,3.7,5.4l17.7,49c0.5,1.3,0.7,2.4,0.7,3.3c0,1.7-0.6,3.1-1.8,4.2s-2.7,1.7-4.4,1.7c-3.4,0-5.6-1.5-6.6-4.6
		l-2.7-8.5h-25l-2.7,8.4c-1,3.2-3.1,4.7-6.5,4.7c-1.8,0-3.4-0.6-4.7-1.8S401,73.1,401,71.3z M420.8,52h17.1l-8.4-26.1h-0.2L420.8,52
		z"/>
	<path class="st0" d="M465.2,69.7V19.4c0-2.2,0.6-3.9,1.9-5.1s2.9-1.8,4.9-1.8s3.6,0.6,4.9,1.8s1.9,2.9,1.9,5.1v45.2h16
		c2.2,0,3.8,0.7,4.9,2c1.1,1.2,1.6,2.6,1.5,4.2c0,0.1,0,0.2,0,0.4c-0.1,1.6-0.7,3-1.9,4.2c-1.2,1.2-2.7,1.8-4.6,1.8h-22.5
		c-2.2,0-3.9-0.7-5.1-2C465.8,73.7,465.2,71.9,465.2,69.7z"/>
	<path class="st0" d="M507.1,69.7V19.4c0-2.2,0.6-3.9,1.9-5.1s2.9-1.8,4.9-1.8s3.6,0.6,4.9,1.8s1.9,2.9,1.9,5.1v45.2h16
		c2.2,0,3.8,0.7,4.9,2c1.1,1.2,1.6,2.6,1.5,4.2c0,0.1,0,0.2,0,0.4c-0.1,1.6-0.7,3-1.9,4.2c-1.2,1.2-2.7,1.8-4.6,1.8h-22.5
		c-2.2,0-3.9-0.7-5.1-2C507.7,73.7,507.1,71.9,507.1,69.7z"/>
	<path class="st0" d="M549,70.3V20.8c0-2.3,0.6-4.2,1.8-5.7c1.2-1.4,2.9-2.2,5.3-2.2h22.3c2,0,3.6,0.6,4.7,1.8s1.7,2.7,1.7,4.4
		c0,1.7-0.6,3.1-1.7,4.4c-1.1,1.2-2.7,1.9-4.7,1.9h-15.9v13.1h14.8c2.1,0,3.7,0.6,4.9,1.8c1.2,1.2,1.7,2.7,1.7,4.4
		c0,1.7-0.6,3.1-1.8,4.4s-2.8,1.8-4.8,1.8h-14.8v13.7h16.7c2,0,3.6,0.6,4.7,1.8c1.1,1.2,1.7,2.7,1.7,4.4c0,1.7-0.6,3.1-1.7,4.4
		s-2.7,1.8-4.7,1.8H556c-2,0-3.6-0.6-5-1.9C549.7,73.9,549,72.3,549,70.3z"/>
	<path class="st0" d="M594.3,70.6V20c0-2.2,0.6-3.9,1.8-5.1c1.2-1.3,2.9-1.9,5.1-1.9H617c7.1,0,12.7,1.7,16.6,5
		c3.9,3.3,5.8,8.5,5.8,15.4c0,4.7-1.6,8.5-4.7,11.5c-3.1,2.9-7.1,4.8-12,5.5l15.3,16.3c1.2,1.3,1.8,2.6,1.8,4c0,1.8-0.6,3.4-1.9,4.8
		c-1.3,1.4-2.9,2.1-4.8,2.1c-2.2,0-3.9-0.8-5.2-2.3l-20-24.2h-0.2v19.5c0,2.2-0.6,3.9-1.9,5.1s-2.9,1.8-4.9,1.8s-3.6-0.6-4.9-1.8
		S594.3,72.8,594.3,70.6z M607.8,41.3h9.3c2.5,0,4.5-0.7,6.1-2.1c1.5-1.4,2.3-3.4,2.3-5.9c0-2.5-0.8-4.5-2.3-5.9
		c-1.5-1.4-3.6-2.1-6.1-2.1h-9.3V41.3z"/>
	<path class="st0" d="M639.6,19c0-1.8,0.6-3.4,1.8-4.6c1.2-1.3,2.8-1.9,4.6-1.9c2.5,0,4.4,0.9,5.6,2.7l13,18.8l13-18.8
		c1.2-1.8,3.1-2.7,5.6-2.7c1.9,0,3.4,0.6,4.6,1.9s1.8,2.8,1.8,4.6c0,1.5-0.4,2.8-1.2,4l-17.1,24v24c0,1.8-0.6,3.4-1.7,4.7
		c-1.1,1.3-2.8,1.9-5.1,1.9s-3.9-0.6-5.1-1.9c-1.1-1.3-1.7-2.8-1.7-4.7V47l-17-24C640,21.8,639.6,20.4,639.6,19z"/>
</g>
</svg>
